<svg width="213" height="227" viewBox="0 0 213 227" fill="none" xmlns="http://www.w3.org/2000/svg">
<g clip-path="url(#clip0_111_1542)">
<path d="M106.46 226.77C70.06 194.24 36.91 159.93 14.55 115.63C7.17001 101.01 1.81001 85.6196 0.340013 68.9396C-1.69999 45.6096 5.34001 26.0196 22.4 10.9996C36.49 -1.41044 52.74 -2.08044 69.62 2.88956C81.89 6.49956 92.99 12.7596 103.21 20.6896C105.72 22.6396 107.18 22.3796 109.58 20.5796C123.04 10.4496 137.5 2.36956 154.16 0.539558C182.88 -2.61044 207.96 19.6396 211.9 50.9296C214.84 74.2496 208.11 95.2596 198.2 115.38C181.73 148.83 158.3 176.51 132.56 202.13C124.19 210.46 115.42 218.33 106.45 226.77H106.46Z" fill="red"/>
</g>
<defs>
<clipPath id="clip0_111_1542">
<rect width="212.6" height="226.77" fill="white"/>
</clipPath>
</defs>
</svg>